<svg preserveAspectRatio="none" overflow="visible" style="display: block;" width="32" height="28.0001" viewBox="0 0 32 28.0001" fill="none" xmlns="http://www.w3.org/2000/svg">
<g id="Group 1707485193">
<g id="Group 1707485192">
<path id="Vector" d="M4.00003 2.00006C4.00003 0.895492 4.89546 6.09756e-05 6.00003 6.09756e-05H10C11.1046 6.09756e-05 12 0.895492 12 2.00006V4.00006H4.00003V2.00006Z" fill="#6C6E78"/>
<path id="Vector_2" d="M3.05772e-05 7.00006C3.05772e-05 4.23864 2.23861 2.00006 5.00003 2.00006H27C29.7615 2.00006 32 4.23864 32 7.00006V23.0001C32 25.7615 29.7615 28.0001 27 28.0001H5.00003C2.23861 28.0001 3.05772e-05 25.7615 3.05772e-05 23.0001V7.00006Z" fill="#41444F"/>
</g>
<g id="Group 1707485191">
<path id="Vector_3" d="M24 16.0001C24 20.4183 20.4183 24.0001 16 24.0001C11.5818 24.0001 8.00003 20.4183 8.00003 16.0001C8.00003 11.5818 11.5818 8.00006 16 8.00006C20.4183 8.00006 24 11.5818 24 16.0001Z" fill="#B5B7BD"/>
<path id="Vector_4" d="M22.5055 16.0029C22.5055 19.5927 19.5953 22.5029 16.0055 22.5029C12.4156 22.5029 9.50546 19.5927 9.50546 16.0029C9.50546 12.413 12.4156 9.50288 16.0055 9.50288C19.5953 9.50288 22.5055 12.413 22.5055 16.0029Z" fill="#272932"/>
<path id="Vector_5" d="M19 16.0001C19 17.6569 17.6569 19.0001 16 19.0001C14.3432 19.0001 13 17.6569 13 16.0001C13 14.3432 14.3432 13.0001 16 13.0001C17.6569 13.0001 19 14.3432 19 16.0001Z" fill="#83868E"/>
<path id="Vector_6" d="M15.1875 14.0001C15.1875 14.6904 14.6279 15.2501 13.9375 15.2501C13.2472 15.2501 12.6875 14.6904 12.6875 14.0001C12.6875 13.3097 13.2472 12.7501 13.9375 12.7501C14.6279 12.7501 15.1875 13.3097 15.1875 14.0001Z" fill="#FAFAFB"/>
</g>
<path id="Vector_7" d="M23.875 7.50006C23.875 8.32849 23.2035 9.00006 22.375 9.00006C21.5466 9.00006 20.875 8.32849 20.875 7.50006C20.875 6.67163 21.5466 6.00006 22.375 6.00006C23.2035 6.00006 23.875 6.67163 23.875 7.50006Z" fill="#FFB74D"/>
</g>
</svg>
