<svg preserveAspectRatio="none" overflow="visible" style="display: block;" width="64" height="24" viewBox="0 0 64 24" fill="none" xmlns="http://www.w3.org/2000/svg">
<g id="Logo">
<g id="Group 3">
<path id="ADDI" d="M17.9054 18.0343C18.4618 19.6154 17.1741 21.2341 15.3601 21.2341C14.1547 21.2341 13.0983 20.4956 12.7806 19.4308L12.0982 17.1442H5.86624L5.17574 19.4582C4.86283 20.5068 3.82249 21.2341 2.6354 21.2341C0.85396 21.2341 -0.413501 19.6482 0.125255 18.0933L5.71044 1.97361C6.17784 0.642018 7.65794 3.65544e-07 9.06015 3.65544e-07C10.3844 3.65544e-07 11.8126 0.689574 12.254 1.97361L17.9054 18.0343ZM8.98225 6.6104L7.06071 13.1257H10.9038L8.98225 6.6104Z" fill="url(#paint0_linear_0_97)"/>
<path id="ADDI_2" d="M12.0236 4.90019L15.2686 4.90019C19.0363 4.90019 23 6.90382 23 12.9583V15.9419C23 21.9964 19.0363 24 15.2686 24H12.0236C9.41013 24 8.6261 23.0635 8.6261 20.559L8.6261 8.3412C8.6261 5.83666 9.41013 4.90019 12.0236 4.90019ZM18.5572 16.2904V12.6098C18.5572 10.0617 17.1851 8.66788 15.1379 8.66788H13.7005C13.1996 8.66788 13.0689 8.77677 13.0689 9.29946L13.0689 19.6007C13.0689 20.1234 13.1996 20.2323 13.7005 20.2323H15.1379C17.1851 20.2323 18.5572 18.8385 18.5572 16.2904Z" fill="url(#paint1_linear_0_97)"/>
</g>
<g id="&#236;&#149;&#132;&#235;&#148;&#148;">
<path d="M42.6817 9.96379H43.3021C44.3533 9.96379 44.6634 10.7646 44.6634 11.4462C44.6634 12.1448 44.336 12.9286 43.3021 12.9286H42.6817V20H39.2353V5.6869C39.2353 4.57934 40.0452 4 40.9585 4C41.8718 4 42.6817 4.57934 42.6817 5.6869V9.96379ZM32.7733 4.27263C35.5649 4.27263 37.5466 5.87433 37.5466 8.82215V15.1267C37.5466 18.0745 35.5649 19.6763 32.7905 19.6763C29.9989 19.6763 28 18.0745 28 15.1267V8.82215C28 5.89137 29.9817 4.27263 32.7733 4.27263ZM34.238 15.2801V8.65176C34.238 7.59531 33.5315 7.03301 32.7733 7.05005C31.9978 7.06709 31.3086 7.61235 31.3086 8.65176V15.2801C31.3086 16.3706 31.9978 16.8988 32.7733 16.8988C33.5315 16.8988 34.238 16.3706 34.238 15.2801Z" fill="#2BD9B6"/>
<path d="M60 20H56.5536V5.6869C56.5536 4.57934 57.3635 4 58.2768 4C59.1901 4 60 4.57934 60 5.6869V20ZM54.1583 19.3184H47.5412C45.301 19.3184 44.8875 18.7902 44.8875 16.6603V7.23749C44.8875 5.10756 45.301 4.59638 47.5412 4.59638H53.0727C54.0722 4.59638 54.3996 5.38019 54.3996 6.02769C54.3996 6.69223 54.0549 7.47604 53.0727 7.47604H48.7991C48.489 7.47604 48.3511 7.57827 48.3511 7.97018V15.9787C48.3511 16.3706 48.489 16.4728 48.7991 16.4728H54.1583C55.1578 16.4728 55.4507 17.2567 55.4507 17.9042C55.4507 18.5687 55.1405 19.3184 54.1583 19.3184Z" fill="#2BD9B6"/>
</g>
</g>
<defs>
<linearGradient id="paint0_linear_0_97" x1="-53.5243" y1="-50.6955" x2="57.8106" y2="26.5519" gradientUnits="userSpaceOnUse">
<stop stop-color="#2BD9B6"/>
<stop offset="1" stop-color="#CDF6E9"/>
</linearGradient>
<linearGradient id="paint1_linear_0_97" x1="13.7233" y1="14.7005" x2="22.4339" y2="26.0149" gradientUnits="userSpaceOnUse">
<stop stop-color="#E4FBF4"/>
<stop offset="1" stop-color="white"/>
</linearGradient>
</defs>
</svg>
