<svg preserveAspectRatio="none" overflow="visible" style="display: block;" width="154" height="62" viewBox="0 0 154 62" fill="none" xmlns="http://www.w3.org/2000/svg">
<g id="Logo">
<g id="ADDI">
<path d="M42.1312 49.2122C43.4402 53.1383 40.4105 57.1581 36.1422 57.1581C33.3058 57.1581 30.8201 55.3242 30.0724 52.68L28.4669 47.0019H13.8031L12.1783 52.7482C11.4421 55.3521 8.99414 57.1581 6.20095 57.1581C2.00922 57.1581 -0.973103 53.2199 0.294585 49.3586L13.4365 9.32952C14.5363 6.02286 18.0189 4.42857 21.3183 4.42857C24.4344 4.42857 27.7949 6.14095 28.8335 9.32952L42.1312 49.2122ZM21.135 20.8438L16.6137 37.0229H25.6564L21.135 20.8438Z" fill="url(#paint0_linear_0_35)"/>
<path d="M56.7633 5.37334H65.8671C76.4373 5.37334 87.5574 10.8057 87.5574 27.221V35.3105C87.5574 51.7257 76.4373 57.1581 65.8671 57.1581H56.7633C49.4314 57.1581 47.2318 54.6191 47.2318 47.8286V14.7029C47.2318 7.91238 49.4314 5.37334 56.7633 5.37334ZM75.0932 36.2552V26.2762C75.0932 19.3676 71.2439 15.5886 65.5005 15.5886H61.468C60.0627 15.5886 59.6961 15.8838 59.6961 17.301V45.2305C59.6961 46.6476 60.0627 46.9429 61.468 46.9429H65.5005C71.2439 46.9429 75.0932 43.1638 75.0932 36.2552Z" fill="url(#paint1_linear_0_35)"/>
<path d="M102.886 5.37334H111.99C122.56 5.37334 133.68 10.8057 133.68 27.221V35.3105C133.68 51.7257 122.56 57.1581 111.99 57.1581H102.886C95.5543 57.1581 93.3547 54.6191 93.3547 47.8286V14.7029C93.3547 7.91238 95.5543 5.37334 102.886 5.37334ZM121.216 36.2552V26.2762C121.216 19.3676 117.367 15.5886 111.623 15.5886H107.591C106.186 15.5886 105.819 15.8838 105.819 17.301V45.2305C105.819 46.6476 106.186 46.9429 107.591 46.9429H111.623C117.367 46.9429 121.216 43.1638 121.216 36.2552Z" fill="url(#paint2_linear_0_35)"/>
<path d="M141.291 10.3333C141.291 6.25905 144.224 4.42857 147.646 4.42857C151.067 4.42857 154 6.25905 154 10.3333L153.987 52.1183C153.777 55.8765 150.938 57.5714 147.645 57.5714C144.223 57.5714 141.291 55.741 141.291 51.6667L141.291 10.3333Z" fill="url(#paint3_linear_0_35)"/>
</g>
</g>
<defs>
<linearGradient id="paint0_linear_0_35" x1="-122.937" y1="-112.19" x2="148.028" y2="65.952" gradientUnits="userSpaceOnUse">
<stop stop-color="#CDF6E9"/>
<stop offset="1" stop-color="#2BD9B6"/>
</linearGradient>
<linearGradient id="paint1_linear_0_35" x1="-122.937" y1="-112.19" x2="148.028" y2="65.952" gradientUnits="userSpaceOnUse">
<stop stop-color="#CDF6E9"/>
<stop offset="1" stop-color="#2BD9B6"/>
</linearGradient>
<linearGradient id="paint2_linear_0_35" x1="-122.937" y1="-112.19" x2="148.028" y2="65.952" gradientUnits="userSpaceOnUse">
<stop stop-color="#CDF6E9"/>
<stop offset="1" stop-color="#2BD9B6"/>
</linearGradient>
<linearGradient id="paint3_linear_0_35" x1="-122.937" y1="-112.19" x2="148.028" y2="65.952" gradientUnits="userSpaceOnUse">
<stop stop-color="#CDF6E9"/>
<stop offset="1" stop-color="#2BD9B6"/>
</linearGradient>
</defs>
</svg>
